<?xml version="1.0" standalone="no"?>
<!DOCTYPE svg PUBLIC "-//W3C//DTD SVG 20010904//EN"
 "http://www.w3.org/TR/2001/REC-SVG-20010904/DTD/svg10.dtd">
<svg version="1.0" xmlns="http://www.w3.org/2000/svg"
 width="309.000000pt" height="367.000000pt" viewBox="0 0 309.000000 367.000000"
 preserveAspectRatio="xMidYMid meet">

<g transform="translate(0.000000,367.000000) scale(0.100000,-0.100000)"
fill="#FFFFFF" stroke="none">
<path d="M1439 3407 c-124 -47 -188 -135 -188 -262 -1 -112 71 -214 178 -252
l51 -18 2 -504 c3 -467 4 -505 21 -515 12 -8 22 -8 35 0 16 10 17 48 20 515
l2 504 51 18 c174 62 236 279 121 424 -64 81 -203 124 -293 90z m178 -104 c69
-44 103 -128 83 -202 -29 -107 -147 -168 -248 -126 -75 32 -114 90 -116 170
-1 145 161 236 281 158z"/>
<path d="M175 3143 c-14 -14 -17 -31 -13 -93 7 -114 49 -170 127 -170 27 0 28
-3 34 -55 9 -90 57 -145 126 -145 l31 0 0 -59 c0 -44 6 -66 23 -92 38 -57 49
-59 296 -56 201 2 225 4 235 20 8 12 8 22 0 35 -10 15 -36 18 -227 22 -148 3
-220 9 -228 17 -6 6 -14 35 -17 62 l-5 51 156 0 c146 0 157 1 167 20 8 14 8
26 0 40 -10 19 -21 20 -224 20 -242 0 -246 1 -246 78 l0 42 150 0 c132 0 150
2 158 18 6 9 6 27 1 40 -8 22 -10 22 -223 22 -211 0 -215 0 -230 22 -9 12 -16
37 -16 56 l0 33 293 -3 293 -3 67 -33 c87 -43 120 -83 263 -317 63 -104 119
-194 124 -199 14 -14 58 2 65 24 8 26 -211 391 -282 470 -29 32 -78 70 -111
88 -107 57 -145 62 -473 62 -266 0 -299 -2 -314 -17z"/>
<path d="M2191 3144 c-85 -23 -167 -72 -224 -134 -71 -79 -290 -444 -282 -470
7 -22 51 -38 65 -24 5 5 61 95 124 199 143 234 176 274 263 317 l67 33 293 3
293 3 0 -33 c0 -19 -7 -44 -16 -56 -15 -22 -19 -22 -229 -22 -204 0 -215 -1
-225 -20 -8 -14 -8 -26 0 -40 10 -19 21 -20 160 -20 l150 0 0 -43 c0 -75 -5
-77 -248 -77 -201 0 -212 -1 -222 -20 -8 -14 -8 -26 0 -40 10 -19 21 -20 167
-20 l156 0 -5 -51 c-3 -27 -11 -56 -17 -62 -8 -8 -80 -14 -228 -17 -191 -4
-217 -7 -227 -22 -8 -13 -8 -23 0 -35 10 -16 34 -18 235 -20 247 -3 258 -1
296 56 17 26 23 48 23 92 l0 59 31 0 c69 0 117 55 126 145 6 52 7 55 34 55 78
0 120 56 127 170 7 117 28 110 -331 109 -231 0 -315 -4 -356 -15z"/>
<path d="M914 2376 c-140 -32 -234 -117 -234 -212 0 -83 87 -185 226 -264 81
-46 279 -129 329 -137 38 -6 60 16 51 51 -5 19 -22 29 -98 56 -185 64 -342
156 -393 230 -33 48 -32 82 5 123 71 82 276 101 424 42 76 -31 99 -27 104 18
3 21 -3 29 -29 43 -108 55 -269 76 -385 50z"/>
<path d="M1915 2384 c-43 -7 -124 -34 -168 -56 -32 -16 -38 -24 -35 -45 5 -45
28 -49 104 -18 99 40 233 46 324 15 261 -87 118 -271 -328 -424 -70 -24 -201
-62 -292 -86 -244 -63 -355 -119 -405 -205 -52 -87 -25 -185 74 -277 103 -95
161 -111 169 -45 3 21 -6 31 -53 62 -99 66 -147 142 -126 198 12 30 68 81 116
105 32 16 166 62 181 62 2 0 5 -80 6 -177 l3 -178 35 0 35 0 3 187 2 187 43
11 c122 31 365 117 462 165 182 89 281 187 292 287 9 88 -72 178 -193 213 -57
17 -195 27 -249 19z"/>
<path d="M1752 1668 c-18 -18 -14 -46 9 -66 100 -81 113 -100 102 -154 -9 -45
-95 -129 -174 -168 -35 -18 -113 -50 -174 -71 -208 -74 -307 -138 -346 -224
-39 -84 -11 -182 75 -266 87 -86 146 -100 154 -37 2 20 -5 31 -30 49 -178 122
-172 238 17 332 28 13 60 28 72 31 l22 7 3 -162 c3 -141 5 -163 21 -173 12 -8
22 -8 35 0 15 10 18 34 22 188 l5 177 83 34 c106 43 168 83 227 146 56 60 75
102 75 167 0 62 -40 127 -105 170 -52 34 -74 39 -93 20z"/>
<path d="M1692 1108 c-24 -24 -13 -55 28 -82 73 -48 99 -121 65 -185 -40 -78
-177 -161 -422 -255 -68 -26 -133 -56 -145 -66 -20 -15 -21 -21 -10 -44 6 -14
20 -26 30 -26 10 0 63 18 117 40 54 22 104 40 111 40 10 0 14 -34 16 -146 3
-127 5 -148 21 -158 12 -8 22 -8 35 0 15 10 17 32 20 178 l2 166 68 34 c128
64 197 126 238 211 41 86 27 165 -44 238 -58 60 -105 80 -130 55z"/>
<path d="M1665 560 c-28 -31 -9 -58 60 -86 72 -29 91 -30 105 -3 18 32 5 48
-65 80 -77 35 -77 35 -100 9z"/>
</g>
</svg>
